<svg width="125" height="125" viewBox="0 0 125 125" fill="none" xmlns="http://www.w3.org/2000/svg">
<rect width="125" height="125" rx="62.5" fill="#F2F9F4"/>
<path d="M83.2168 79.3052C81.9596 76.3207 80.1351 73.6098 77.845 71.3234C75.5619 69.0304 72.8574 67.2023 69.8807 65.9399C69.854 65.9265 69.8274 65.9198 69.8007 65.9065C73.9528 62.9008 76.6521 58.0048 76.6521 52.481C76.6521 43.3303 69.2542 35.9162 60.1235 35.9162C50.9928 35.9162 43.595 43.3303 43.595 52.481C43.595 58.0048 46.2942 62.9008 50.4463 65.9131C50.4197 65.9265 50.393 65.9332 50.3664 65.9465C47.3806 67.2089 44.7013 69.019 42.402 71.3301C40.1141 73.6182 38.2899 76.3287 37.0302 79.3119C35.7927 82.2324 35.1253 85.3637 35.0641 88.536C35.0624 88.6073 35.0748 88.6783 35.1008 88.7446C35.1268 88.811 35.1658 88.8715 35.2155 88.9226C35.2652 88.9736 35.3246 89.0142 35.3901 89.0418C35.4557 89.0695 35.5262 89.0838 35.5973 89.0838H39.5961C39.8894 89.0838 40.1227 88.85 40.1293 88.5628C40.2626 83.4063 42.3287 78.5772 45.981 74.9169C49.7599 71.1297 54.7784 69.0457 60.1235 69.0457C65.4686 69.0457 70.4872 71.1297 74.2661 74.9169C77.9184 78.5772 79.9844 83.4063 80.1177 88.5628C80.1244 88.8567 80.3577 89.0838 80.6509 89.0838H84.6497C84.7209 89.0838 84.7913 89.0695 84.8569 89.0418C84.9225 89.0142 84.9819 88.9736 85.0315 88.9226C85.0812 88.8715 85.1202 88.811 85.1462 88.7446C85.1722 88.6783 85.1847 88.6073 85.1829 88.536C85.1163 85.3433 84.4565 82.2374 83.2168 79.3052ZM60.1235 63.9695C57.0644 63.9695 54.1852 62.7739 52.0192 60.6031C49.8532 58.4323 48.6602 55.5468 48.6602 52.481C48.6602 49.4152 49.8532 46.5297 52.0192 44.3589C54.1852 42.1881 57.0644 40.9925 60.1235 40.9925C63.1826 40.9925 66.0618 42.1881 68.2278 44.3589C70.3939 46.5297 71.5869 49.4152 71.5869 52.481C71.5869 55.5468 70.3939 58.4323 68.2278 60.6031C66.0618 62.7739 63.1826 63.9695 60.1235 63.9695Z" fill="#9BDBB3"/>
<g clip-path="url(#clip0_2887_83633)">
<circle cx="81.2845" cy="77.955" r="7.56306" fill="white"/>
<path fill-rule="evenodd" clip-rule="evenodd" d="M81.4489 66.2267C74.7901 66.2267 69.3918 71.625 69.3918 78.2838C69.3918 84.9426 74.7901 90.3408 81.4489 90.3408C88.1077 90.3408 93.506 84.9426 93.506 78.2838C93.506 71.625 88.1077 66.2267 81.4489 66.2267ZM86.6751 76.245C86.7713 76.135 86.8446 76.0069 86.8906 75.8682C86.9365 75.7294 86.9543 75.5829 86.9428 75.4372C86.9314 75.2915 86.8908 75.1496 86.8237 75.0197C86.7565 74.8899 86.6641 74.7749 86.5518 74.6813C86.4396 74.5877 86.3097 74.5176 86.1699 74.4749C86.0301 74.4323 85.8832 74.418 85.7378 74.433C85.5924 74.448 85.4515 74.4919 85.3233 74.5621C85.1952 74.6324 85.0823 74.7275 84.9915 74.842L80.2783 80.4968L77.8395 78.0569C77.6327 77.8572 77.3559 77.7467 77.0685 77.7492C76.7811 77.7517 76.5062 77.867 76.3029 78.0702C76.0997 78.2735 75.9844 78.5484 75.9819 78.8358C75.9794 79.1232 76.0899 79.4 76.2896 79.6068L79.5779 82.8951C79.6856 83.0027 79.8145 83.0867 79.9565 83.1417C80.0984 83.1968 80.2503 83.2216 80.4024 83.2147C80.5545 83.2078 80.7035 83.1693 80.8399 83.1016C80.9763 83.0339 81.0971 82.9386 81.1946 82.8216L86.6751 76.245Z" fill="#16A75C"/>
</g>
<defs>
<clipPath id="clip0_2887_83633">
<rect width="24.991" height="24.991" fill="white" transform="translate(68.8711 65.7883)"/>
</clipPath>
</defs>
</svg>
