<svg width="20" height="20" viewBox="0 0 20 20" fill="none" xmlns="http://www.w3.org/2000/svg">
<path fill-rule="evenodd" clip-rule="evenodd" d="M7.68786 2.88889C8.11248 2.88876 8.52874 3.00409 8.88997 3.22194C9.25126 3.43982 9.54321 3.75164 9.73308 4.12242C9.73311 4.12247 9.73305 4.12236 9.73308 4.12242L10.3717 5.36895C10.4191 5.46162 10.4921 5.53974 10.5824 5.59422C10.6727 5.64869 10.7767 5.67755 10.8829 5.67756C10.8829 5.67756 10.8828 5.67756 10.8829 5.67756H15.7143C16.3205 5.67756 16.9019 5.9126 17.3305 6.33098C17.7592 6.74936 18 7.31681 18 7.90849V14.8802C18 15.4719 17.7592 16.0393 17.3305 16.4577C16.9019 16.8761 16.3205 17.1111 15.7143 17.1111H4.28571C3.6795 17.1111 3.09812 16.8761 2.66947 16.4577C2.24082 16.0393 2 15.4719 2 14.8802V5.11982C2 4.52814 2.24082 3.96069 2.66947 3.54231C3.09812 3.12393 3.67951 2.88889 4.28571 2.88889H7.68786C7.68781 2.88889 7.68791 2.88889 7.68786 2.88889ZM7.98889 4.64535C7.89855 4.59087 7.79445 4.56204 7.68826 4.56209L4.28571 4.56209C4.13416 4.56209 3.98882 4.62085 3.88165 4.72544C3.77449 4.83004 3.71429 4.9719 3.71429 5.11982V14.8802C3.71429 15.0281 3.77449 15.17 3.88165 15.2745C3.98882 15.3791 4.13416 15.4379 4.28571 15.4379H15.7143C15.8658 15.4379 16.0112 15.3791 16.1183 15.2745C16.2255 15.17 16.2857 15.0281 16.2857 14.8802V7.90849C16.2857 7.76057 16.2255 7.61871 16.1183 7.51412C16.0112 7.40952 15.8658 7.35076 15.7143 7.35076H10.8829C10.4583 7.35074 10.0421 7.23532 9.68097 7.01741C9.31985 6.79951 9.02804 6.48774 8.83826 6.11705L8.19978 4.87069C8.15231 4.77798 8.07922 4.69983 7.98889 4.64535Z" fill="black"/>
</svg>
