<svg width="20" height="21" viewBox="0 0 20 21" fill="none" xmlns="http://www.w3.org/2000/svg">
<path fill-rule="evenodd" clip-rule="evenodd" d="M0.857178 4.31111C0.857178 3.7049 1.09799 3.12352 1.52665 2.69486C1.9553 2.26621 2.53668 2.02539 3.14289 2.02539H12.2857C12.892 2.02539 13.4733 2.26621 13.902 2.69486C14.3306 3.12352 14.5715 3.7049 14.5715 4.31111V15.7397C14.5715 16.3459 14.8123 16.9273 15.2409 17.3559C15.6696 17.7846 16.251 18.0254 16.8572 18.0254H3.14289C2.53668 18.0254 1.9553 17.7846 1.52665 17.3559C1.09799 16.9273 0.857178 16.3459 0.857178 15.7397V4.31111ZM4.28575 5.45396H11.1429V10.0254H4.28575V5.45396ZM11.1429 12.3111H4.28575V14.5968H11.1429V12.3111Z" fill="white"/>
<path d="M15.7144 6.5968H16.8572C17.4634 6.5968 18.0448 6.83762 18.4735 7.26627C18.9021 7.69493 19.1429 8.27631 19.1429 8.88252V15.1682C19.1429 15.6229 18.9623 16.0589 18.6408 16.3804C18.3193 16.7019 17.8833 16.8825 17.4286 16.8825C16.974 16.8825 16.5379 16.7019 16.2165 16.3804C15.895 16.0589 15.7144 15.6229 15.7144 15.1682V6.5968Z" fill="white"/>
</svg>
