<svg width="20" height="20" viewBox="0 0 20 20" fill="none" xmlns="http://www.w3.org/2000/svg">
<path d="M16.2 4.4H15V2.8C15 2.58783 14.9157 2.38434 14.7657 2.23431C14.6157 2.08429 14.4122 2 14.2 2C13.9878 2 13.7843 2.08429 13.6343 2.23431C13.4843 2.38434 13.4 2.58783 13.4 2.8V4.4H7V2.8C7 2.58783 6.91571 2.38434 6.76569 2.23431C6.61566 2.08429 6.41217 2 6.2 2C5.98783 2 5.78434 2.08429 5.63431 2.23431C5.48429 2.38434 5.4 2.58783 5.4 2.8V4.4H4.2C3.88174 4.4 3.57652 4.52643 3.35147 4.75147C3.12643 4.97652 3 5.28174 3 5.6V16.8C3 17.1183 3.12643 17.4235 3.35147 17.6485C3.57652 17.8736 3.88174 18 4.2 18H16.2C16.5183 18 16.8235 17.8736 17.0485 17.6485C17.2736 17.4235 17.4 17.1183 17.4 16.8V5.6C17.4 5.28174 17.2736 4.97652 17.0485 4.75147C16.8235 4.52643 16.5183 4.4 16.2 4.4ZM15.8 6V7.6H4.6V6H15.8ZM4.6 16.4V9.2H15.8V16.4H4.6Z" fill="#16A75C"/>
<path d="M11 10.8H9.40002V12.4H11V10.8Z" fill="#16A75C"/>
<path d="M14.2 10.8H12.6V12.4H14.2V10.8Z" fill="#16A75C"/>
<path d="M7.79995 14H6.19995V15.6H7.79995V14Z" fill="#16A75C"/>
<path d="M11 14H9.40002V15.6H11V14Z" fill="#16A75C"/>
<path d="M14.2 14H12.6V15.6H14.2V14Z" fill="#16A75C"/>
</svg>
