<svg width="20" height="21" viewBox="0 0 20 21" fill="none" xmlns="http://www.w3.org/2000/svg">
<path d="M9.99996 1.69214C14.6025 1.69214 18.3333 5.42297 18.3333 10.0255C18.3333 14.628 14.6025 18.3588 9.99996 18.3588C5.39746 18.3588 1.66663 14.628 1.66663 10.0255C1.66663 5.42297 5.39746 1.69214 9.99996 1.69214ZM13.83 6.19547C13.7475 6.11279 13.6385 6.06186 13.5222 6.05164C13.4059 6.04143 13.2897 6.07259 13.1941 6.13964C10.7858 7.82964 9.42746 8.83131 9.11579 9.14131C8.88161 9.37597 8.75008 9.69395 8.75008 10.0255C8.75008 10.357 8.88161 10.675 9.11579 10.9096C9.35045 11.1438 9.66844 11.2753 9.99996 11.2753C10.3315 11.2753 10.6495 11.1438 10.8841 10.9096C11.0666 10.7263 12.0658 9.36714 13.8825 6.82881C13.9501 6.7341 13.9819 6.61848 13.9723 6.50252C13.9627 6.38655 13.9122 6.27775 13.83 6.19547ZM14.5833 9.19214C14.3623 9.19214 14.1503 9.27994 13.994 9.43622C13.8378 9.5925 13.75 9.80446 13.75 10.0255C13.75 10.2465 13.8378 10.4584 13.994 10.6147C14.1503 10.771 14.3623 10.8588 14.5833 10.8588C14.8043 10.8588 15.0163 10.771 15.1725 10.6147C15.3288 10.4584 15.4166 10.2465 15.4166 10.0255C15.4166 9.80446 15.3288 9.5925 15.1725 9.43622C15.0163 9.27994 14.8043 9.19214 14.5833 9.19214ZM5.41663 9.19214C5.19561 9.19214 4.98365 9.27994 4.82737 9.43622C4.67109 9.5925 4.58329 9.80446 4.58329 10.0255C4.58329 10.2465 4.67109 10.4584 4.82737 10.6147C4.98365 10.771 5.19561 10.8588 5.41663 10.8588C5.63764 10.8588 5.8496 10.771 6.00588 10.6147C6.16216 10.4584 6.24996 10.2465 6.24996 10.0255C6.24996 9.80446 6.16216 9.5925 6.00588 9.43622C5.8496 9.27994 5.63764 9.19214 5.41663 9.19214ZM7.34829 6.19547C7.27081 6.1181 7.17885 6.05675 7.07766 6.01492C6.97647 5.97309 6.86803 5.9516 6.75854 5.95168C6.64904 5.95175 6.54063 5.9734 6.4395 6.01537C6.33837 6.05734 6.2465 6.11883 6.16913 6.19631C6.01287 6.35278 5.92517 6.56492 5.92533 6.78606C5.92541 6.89556 5.94705 7.00397 5.98902 7.1051C6.031 7.20623 6.09248 7.2981 6.16996 7.37547C6.32644 7.53173 6.53858 7.61943 6.75972 7.61927C6.98085 7.61911 7.19287 7.53112 7.34913 7.37464C7.50538 7.21816 7.59308 7.00602 7.59292 6.78488C7.59277 6.56375 7.50477 6.35173 7.34829 6.19547ZM9.99996 4.60881C9.77895 4.60881 9.56698 4.6966 9.4107 4.85288C9.25442 5.00916 9.16663 5.22113 9.16663 5.44214C9.16663 5.66315 9.25442 5.87511 9.4107 6.03139C9.56698 6.18767 9.77895 6.27547 9.99996 6.27547C10.221 6.27547 10.4329 6.18767 10.5892 6.03139C10.7455 5.87511 10.8333 5.66315 10.8333 5.44214C10.8333 5.22113 10.7455 5.00916 10.5892 4.85288C10.4329 4.6966 10.221 4.60881 9.99996 4.60881Z" fill="white"/>
</svg>
