<svg width="20" height="20" viewBox="0 0 20 20" xmlns="http://www.w3.org/2000/svg">
<path fill-rule="evenodd" clip-rule="evenodd" d="M3.7 3.7C3.4613 3.7 3.23238 3.79482 3.0636 3.96361C2.89482 4.13239 2.8 4.36131 2.8 4.6V15.4C2.8 15.6387 2.89482 15.8676 3.0636 16.0364C3.23238 16.2052 3.4613 16.3 3.7 16.3H13.6V4.6C13.6 4.36131 13.5052 4.13239 13.3364 3.96361C13.1676 3.79482 12.9387 3.7 12.7 3.7H3.7ZM3.7 1.9C2.98391 1.9 2.29716 2.18446 1.79081 2.69081C1.28446 3.19716 0.999996 3.88392 0.999996 4.6V15.4C0.999996 16.1161 1.28446 16.8028 1.79081 17.3092C2.29716 17.8155 2.98391 18.1 3.7 18.1H16.3C17.0161 18.1 17.7028 17.8155 18.2092 17.3092C18.7155 16.8028 19 16.1161 19 15.4V7.3C19 6.58392 18.7155 5.89716 18.2092 5.39081C17.7028 4.88447 17.0161 4.6 16.3 4.6H15.4C15.4 3.88392 15.1155 3.19716 14.6092 2.69081C14.1028 2.18447 13.4161 1.9 12.7 1.9H3.7ZM15.4 6.4V15.4C15.4 15.6387 15.4948 15.8676 15.6636 16.0364C15.8324 16.2052 16.0613 16.3 16.3 16.3C16.5387 16.3 16.7676 16.2052 16.9364 16.0364C17.1052 15.8676 17.2 15.6387 17.2 15.4V7.3C17.2 7.06131 17.1052 6.83239 16.9364 6.66361C16.7676 6.49482 16.5387 6.4 16.3 6.4H15.4ZM4.6 6.4C4.6 5.90295 5.00294 5.5 5.5 5.5H10.9C11.3971 5.5 11.8 5.90295 11.8 6.4V10C11.8 10.4971 11.3971 10.9 10.9 10.9H5.5C5.00294 10.9 4.6 10.4971 4.6 10V6.4ZM6.4 7.3V9.1H10V7.3H6.4ZM4.6 13.6C4.6 13.1029 5.00294 12.7 5.5 12.7H10.9C11.3971 12.7 11.8 13.1029 11.8 13.6C11.8 14.0971 11.3971 14.5 10.9 14.5H5.5C5.00294 14.5 4.6 14.0971 4.6 13.6Z"/>
</svg>
