<svg width="20" height="20" viewBox="0 0 20 20" xmlns="http://www.w3.org/2000/svg">
<path d="M3.33334 3.33334C3.33334 2.89131 3.50893 2.46739 3.82149 2.15483C4.13405 1.84227 4.55797 1.66667 5 1.66667H11.6667C11.8877 1.66672 12.0996 1.75455 12.2558 1.91084L16.4225 6.07751C16.5788 6.23375 16.6666 6.44568 16.6667 6.66667V16.6667C16.6667 17.1087 16.4911 17.5326 16.1785 17.8452C15.866 18.1577 15.442 18.3333 15 18.3333H5C4.55797 18.3333 4.13405 18.1577 3.82149 17.8452C3.50893 17.5326 3.33334 17.1087 3.33334 16.6667V3.33334ZM14.655 6.66667L11.6667 3.67834V6.66667H14.655ZM10 3.33334H5V16.6667H15V8.33334H10.8333C10.6123 8.33334 10.4004 8.24554 10.2441 8.08926C10.0878 7.93298 10 7.72102 10 7.50001V3.33334ZM6.66667 10.8333C6.66667 10.6123 6.75447 10.4004 6.91075 10.2441C7.06703 10.0878 7.27899 10 7.5 10H12.5C12.721 10 12.933 10.0878 13.0893 10.2441C13.2455 10.4004 13.3333 10.6123 13.3333 10.8333C13.3333 11.0544 13.2455 11.2663 13.0893 11.4226C12.933 11.5789 12.721 11.6667 12.5 11.6667H7.5C7.27899 11.6667 7.06703 11.5789 6.91075 11.4226C6.75447 11.2663 6.66667 11.0544 6.66667 10.8333ZM6.66667 14.1667C6.66667 13.9457 6.75447 13.7337 6.91075 13.5774C7.06703 13.4211 7.27899 13.3333 7.5 13.3333H12.5C12.721 13.3333 12.933 13.4211 13.0893 13.5774C13.2455 13.7337 13.3333 13.9457 13.3333 14.1667C13.3333 14.3877 13.2455 14.5996 13.0893 14.7559C12.933 14.9122 12.721 15 12.5 15H7.5C7.27899 15 7.06703 14.9122 6.91075 14.7559C6.75447 14.5996 6.66667 14.3877 6.66667 14.1667Z" fill="black"/>
</svg>
