<svg viewBox="0 0 20 20" fill="none" xmlns="http://www.w3.org/2000/svg">
<path d="M10 4.63417L4.16667 9.30083L4.16667 15.8333L8.33333 15.8333V12.5H11.6667V15.8333H15.8333V9.70167C15.8334 9.57669 15.8053 9.45331 15.7512 9.34065C15.6971 9.22799 15.6184 9.12894 15.5208 9.05083L10 4.63417ZM10 2.5L16.5617 7.75C16.8543 7.98407 17.0905 8.28091 17.2529 8.61859C17.4154 8.95626 17.4998 9.32613 17.5 9.70083V15.8333C17.5 16.2754 17.3244 16.6993 17.0118 17.0118C16.6993 17.3244 16.2754 17.5 15.8333 17.5H4.16667C3.72464 17.5 3.30072 17.3244 2.98816 17.0118C2.67559 16.6993 2.5 16.2754 2.5 15.8333L2.5 9.30083C2.50003 9.05103 2.55622 8.80442 2.6644 8.57926C2.77258 8.35409 2.93 8.15613 3.125 8L10 2.5Z"/>
</svg>
