<svg width="16" height="16" viewBox="0 0 16 16" fill="none" xmlns="http://www.w3.org/2000/svg">
<g clip-path="url(#clip0_758_9333)">
<path d="M12.5 4.4C12.5 4.6387 12.4052 4.86761 12.2364 5.0364C12.0676 5.20518 11.8387 5.3 11.6 5.3C11.3613 5.3 11.1324 5.20518 10.9636 5.0364C10.7948 4.86761 10.7 4.6387 10.7 4.4C10.7 4.16131 10.7948 3.93239 10.9636 3.7636C11.1324 3.59482 11.3613 3.5 11.6 3.5C11.8387 3.5 12.0676 3.59482 12.2364 3.7636C12.4052 3.93239 12.5 4.16131 12.5 4.4Z" fill="#616161"/>
<path d="M10.25 0.799999C7.48159 0.799999 5.29999 2.9816 5.29999 5.75C5.29999 6.1073 5.33599 6.4664 5.40979 6.8075C5.46199 7.0505 5.40259 7.2611 5.28199 7.3817L1.19599 11.4677C1.07038 11.5932 0.970745 11.7421 0.902794 11.9062C0.834843 12.0702 0.799907 12.246 0.799988 12.4235V13.85C0.799988 14.208 0.94222 14.5514 1.19539 14.8046C1.44857 15.0578 1.79195 15.2 2.14999 15.2H3.94999C4.30803 15.2 4.65141 15.0578 4.90458 14.8046C5.15776 14.5514 5.29999 14.208 5.29999 13.85V13.4H6.19999C6.43868 13.4 6.6676 13.3052 6.83638 13.1364C7.00517 12.9676 7.09999 12.7387 7.09999 12.5V11.6H7.99999C8.23868 11.6 8.4676 11.5052 8.63638 11.3364C8.80517 11.1676 8.89999 10.9387 8.89999 10.7V10.538C9.34369 10.6586 9.80629 10.7 10.25 10.7C13.0184 10.7 15.2 8.5184 15.2 5.75C15.2 2.9816 13.0184 0.799999 10.25 0.799999ZM6.19999 5.75C6.19999 3.4784 7.97839 1.7 10.25 1.7C12.5216 1.7 14.3 3.4784 14.3 5.75C14.3 8.0216 12.5216 9.8 10.25 9.8C9.65599 9.8 9.10429 9.7145 8.65159 9.4877C8.58298 9.45332 8.50672 9.43706 8.43006 9.44046C8.3534 9.44385 8.27888 9.4668 8.21358 9.50711C8.14829 9.54743 8.09439 9.60377 8.057 9.67078C8.01962 9.7378 7.99999 9.81326 7.99999 9.89V10.7H7.09999C6.86129 10.7 6.63237 10.7948 6.46359 10.9636C6.29481 11.1324 6.19999 11.3613 6.19999 11.6V12.5H5.29999C5.06129 12.5 4.83237 12.5948 4.66359 12.7636C4.49481 12.9324 4.39999 13.1613 4.39999 13.4V13.85C4.39999 13.9693 4.35258 14.0838 4.26819 14.1682C4.18379 14.2526 4.06934 14.3 3.94999 14.3H2.14999C2.03064 14.3 1.91618 14.2526 1.83179 14.1682C1.7474 14.0838 1.69999 13.9693 1.69999 13.85V12.4226C1.70001 12.3035 1.74727 12.1892 1.83139 12.1049L5.91829 8.018C6.30709 7.6292 6.38809 7.0784 6.28909 6.6176C6.22905 6.33232 6.19918 6.04152 6.19999 5.75Z" fill="#616161"/>
</g>
<defs>
<clipPath id="clip0_758_9333">
<rect width="14.4" height="14.4" fill="white" transform="translate(0.799988 0.799999)"/>
</clipPath>
</defs>
</svg>
