<svg width="20" height="21" viewBox="0 0 20 21" fill="none" xmlns="http://www.w3.org/2000/svg">
<g clip-path="url(#clip0_858_56469)">
<path d="M11.7875 7.82539C11.5056 7.46849 11.3264 7.04145 11.2692 6.59027C11.2121 6.13908 11.279 5.68085 11.4629 5.2649C11.6469 4.84895 11.9408 4.49106 12.313 4.22975C12.6852 3.96844 13.1217 3.81362 13.5754 3.78196C14.0291 3.7503 14.4828 3.843 14.8877 4.05008C15.2926 4.25716 15.6334 4.57077 15.8733 4.95714C16.1132 5.34351 16.2432 5.78801 16.2492 6.24276C16.2552 6.69751 16.1371 7.1453 15.9075 7.53789C15.8136 7.52951 15.7193 7.52534 15.625 7.52539H13.125C12.6624 7.52476 12.2055 7.62724 11.7875 7.82539ZM7.5 16.2754C4.27875 16.2591 2.5 15.1291 2.5 12.8691V11.9004C2.5 11.4031 2.69754 10.9262 3.04917 10.5746C3.40081 10.2229 3.87772 10.0254 4.375 10.0254H10.0625C10.059 10.0429 10.0557 10.0604 10.0525 10.0779C9.3353 10.2115 8.68746 10.5919 8.22126 11.1531C7.75507 11.7142 7.49991 12.4208 7.5 13.1504V16.2754ZM10.625 5.65039C10.625 4.82159 10.2958 4.02673 9.70971 3.44068C9.12366 2.85463 8.3288 2.52539 7.5 2.52539C6.6712 2.52539 5.87634 2.85463 5.29029 3.44068C4.70424 4.02673 4.375 4.82159 4.375 5.65039C4.375 6.47919 4.70424 7.27405 5.29029 7.8601C5.87634 8.44615 6.6712 8.77539 7.5 8.77539C8.3288 8.77539 9.12366 8.44615 9.70971 7.8601C10.2958 7.27405 10.625 6.47919 10.625 5.65039ZM11.25 10.6504V11.2754H10.625C10.1277 11.2754 9.65081 11.4729 9.29917 11.8246C8.94754 12.1762 8.75 12.6531 8.75 13.1504V15.0254H11.25V14.4004C11.25 14.2346 11.3158 14.0757 11.4331 13.9584C11.5503 13.8412 11.7092 13.7754 11.875 13.7754C12.0408 13.7754 12.1997 13.8412 12.3169 13.9584C12.4342 14.0757 12.5 14.2346 12.5 14.4004V15.0254H16.25V14.4004C16.25 14.2346 16.3158 14.0757 16.4331 13.9584C16.5503 13.8412 16.7092 13.7754 16.875 13.7754C17.0408 13.7754 17.1997 13.8412 17.3169 13.9584C17.4342 14.0757 17.5 14.2346 17.5 14.4004V15.0254H20V13.1504C20 12.6531 19.8025 12.1762 19.4508 11.8246C19.0992 11.4729 18.6223 11.2754 18.125 11.2754H17.5V10.6504C17.5 10.1531 17.3025 9.6762 16.9508 9.32456C16.5992 8.97293 16.1223 8.77539 15.625 8.77539H13.125C12.6277 8.77539 12.1508 8.97293 11.7992 9.32456C11.4475 9.6762 11.25 10.1531 11.25 10.6504ZM13.125 10.0254H15.625C15.7908 10.0254 15.9497 10.0912 16.0669 10.2084C16.1842 10.3257 16.25 10.4846 16.25 10.6504V11.2754H12.5V10.6504C12.5 10.4846 12.5658 10.3257 12.6831 10.2084C12.8003 10.0912 12.9592 10.0254 13.125 10.0254ZM20 16.2754H17.5V16.9004C17.5 17.0662 17.4342 17.2251 17.3169 17.3423C17.1997 17.4595 17.0408 17.5254 16.875 17.5254C16.7092 17.5254 16.5503 17.4595 16.4331 17.3423C16.3158 17.2251 16.25 17.0662 16.25 16.9004V16.2754H12.5V16.9004C12.5 17.0662 12.4342 17.2251 12.3169 17.3423C12.1997 17.4595 12.0408 17.5254 11.875 17.5254C11.7092 17.5254 11.5503 17.4595 11.4331 17.3423C11.3158 17.2251 11.25 17.0662 11.25 16.9004V16.2754H8.75V18.1504C8.75 18.6477 8.94754 19.1246 9.29917 19.4762C9.65081 19.8278 10.1277 20.0254 10.625 20.0254H18.125C18.6223 20.0254 19.0992 19.8278 19.4508 19.4762C19.8025 19.1246 20 18.6477 20 18.1504V16.2754Z" fill="white"/>
</g>
<defs>
<clipPath id="clip0_858_56469">
<rect width="20" height="20" fill="white" transform="translate(0 0.0253906)"/>
</clipPath>
</defs>
</svg>
