<svg width="16" height="16" viewBox="0 0 16 16" fill="none" xmlns="http://www.w3.org/2000/svg">
<path d="M6.28719 11.7528L5.63919 12.3968C5.36772 12.664 5.00209 12.8137 4.62119 12.8137C4.24028 12.8137 3.87465 12.664 3.60319 12.3968C3.47083 12.2657 3.36576 12.1097 3.29406 11.9378C3.22236 11.7659 3.18544 11.5815 3.18544 11.3952C3.18544 11.2089 3.22236 11.0245 3.29406 10.8526C3.36576 10.6807 3.47083 10.5247 3.60319 10.3936L5.98719 8.02959C6.48079 7.53919 7.41039 6.81759 8.08799 7.48959C8.16091 7.56735 8.24874 7.62961 8.34625 7.67268C8.44377 7.71574 8.54895 7.73872 8.65554 7.74024C8.76213 7.74176 8.86793 7.72179 8.96663 7.68152C9.06533 7.64125 9.1549 7.58152 9.23001 7.50587C9.30512 7.43023 9.36421 7.34023 9.40378 7.24124C9.44334 7.14226 9.46255 7.03632 9.46027 6.92975C9.45799 6.82317 9.43427 6.71815 9.39051 6.62095C9.34675 6.52375 9.28386 6.43636 9.20559 6.36399C8.05519 5.22159 6.35279 5.43279 4.87039 6.90399L2.48639 9.26879C2.2047 9.54651 1.98122 9.8776 1.82902 10.2427C1.67682 10.6078 1.59896 10.9996 1.59999 11.3952C1.599 11.7907 1.67689 12.1825 1.82908 12.5476C1.98128 12.9127 2.20474 13.2439 2.48639 13.5216C3.05414 14.0848 3.8219 14.4 4.62159 14.3984C5.39519 14.3984 6.16879 14.1064 6.75679 13.5216L7.40559 12.8776C7.47957 12.8044 7.53839 12.7174 7.57865 12.6214C7.61891 12.5254 7.63982 12.4225 7.6402 12.3184C7.64057 12.2144 7.62039 12.1113 7.58081 12.015C7.54124 11.9188 7.48305 11.8313 7.40959 11.7576C7.26108 11.6087 7.05968 11.5246 6.84938 11.5237C6.63907 11.5228 6.43696 11.6052 6.28719 11.7528ZM13.5128 2.56559C12.2752 1.33839 10.5456 1.27199 9.40159 2.40799L8.59439 3.20959C8.44523 3.35769 8.36101 3.55897 8.36026 3.76916C8.35951 3.97935 8.44229 4.18123 8.59039 4.33039C8.73848 4.47955 8.93977 4.56377 9.14996 4.56452C9.36015 4.56527 9.56203 4.48249 9.71119 4.33439L10.5192 3.53359C11.1112 2.94479 11.888 3.18879 12.396 3.69119C12.6648 3.95919 12.8136 4.31439 12.8136 4.69279C12.8136 5.07119 12.6648 5.42639 12.396 5.69359L9.85198 8.21679C8.68879 9.36959 8.14319 8.82959 7.91039 8.59839C7.83653 8.52506 7.74895 8.467 7.65266 8.42751C7.55636 8.38803 7.45323 8.3679 7.34916 8.36827C7.24508 8.36864 7.1421 8.3895 7.04609 8.42968C6.95007 8.46985 6.86292 8.52854 6.78959 8.60239C6.71626 8.67625 6.65819 8.76382 6.61871 8.86012C6.57922 8.95641 6.55909 9.05954 6.55946 9.16362C6.55983 9.2677 6.5807 9.37068 6.62087 9.46669C6.66104 9.5627 6.71973 9.64986 6.79359 9.72319C7.32799 10.2528 7.93759 10.5152 8.57599 10.5152C9.35759 10.5152 10.184 10.1216 10.9704 9.34159L13.5144 6.81919C13.7955 6.54106 14.0185 6.20987 14.1705 5.84484C14.3225 5.47981 14.4005 5.08821 14.4 4.69279C14.4007 4.29708 14.3226 3.90519 14.1703 3.53997C14.018 3.17476 13.7945 2.84352 13.5128 2.56559Z" fill="#757575"/>
</svg>
