<svg width="20" height="20" viewBox="0 0 20 20" fill="none" xmlns="http://www.w3.org/2000/svg">
<path d="M7.85901 14.691L7.04901 15.496C6.70968 15.83 6.25264 16.0172 5.77651 16.0172C5.30038 16.0172 4.84334 15.83 4.50401 15.496C4.33857 15.3322 4.20723 15.1372 4.1176 14.9223C4.02798 14.7074 3.98183 14.4769 3.98183 14.244C3.98183 14.0112 4.02798 13.7807 4.1176 13.5658C4.20723 13.3509 4.33857 13.1559 4.50401 12.992L7.48401 10.037C8.10101 9.42403 9.26301 8.52203 10.11 9.36203C10.2012 9.45922 10.311 9.53706 10.4328 9.59088C10.5547 9.64471 10.6862 9.67343 10.8195 9.67533C10.9527 9.67723 11.0849 9.65227 11.2083 9.60194C11.3317 9.55161 11.4437 9.47693 11.5375 9.38238C11.6314 9.28782 11.7053 9.17532 11.7548 9.05159C11.8042 8.92786 11.8282 8.79544 11.8254 8.66222C11.8225 8.529 11.7929 8.39773 11.7382 8.27622C11.6835 8.15472 11.6049 8.04548 11.507 7.95503C10.069 6.52703 7.94101 6.79103 6.08801 8.63003L3.10801 11.586C2.7559 11.9332 2.47656 12.347 2.28631 12.8034C2.09606 13.2598 1.99873 13.7496 2.00001 14.244C1.99878 14.7385 2.09614 15.2282 2.28638 15.6846C2.47663 16.141 2.75595 16.5549 3.10801 16.902C3.81771 17.606 4.77741 18.0001 5.77701 17.998C6.74401 17.998 7.71101 17.633 8.44601 16.902L9.25701 16.097C9.3495 16.0056 9.42301 15.8967 9.47334 15.7768C9.52367 15.6568 9.54981 15.5281 9.55027 15.3981C9.55074 15.268 9.52551 15.1391 9.47605 15.0188C9.42658 14.8985 9.35384 14.7892 9.26201 14.697C9.07638 14.5109 8.82463 14.4058 8.56175 14.4047C8.29887 14.4035 8.04623 14.5065 7.85901 14.691ZM16.891 3.20703C15.344 1.67303 13.182 1.59003 11.752 3.01003L10.743 4.01203C10.5566 4.19715 10.4513 4.44875 10.4504 4.71149C10.4494 4.97423 10.5529 5.22658 10.738 5.41303C10.9231 5.59948 11.1747 5.70475 11.4375 5.70568C11.7002 5.70662 11.9526 5.60315 12.139 5.41803L13.149 4.41703C13.889 3.68103 14.86 3.98603 15.495 4.61403C15.831 4.94903 16.017 5.39303 16.017 5.86603C16.017 6.33903 15.831 6.78303 15.495 7.11703L12.315 10.271C10.861 11.712 10.179 11.037 9.88801 10.748C9.79569 10.6564 9.68622 10.5838 9.56585 10.5344C9.44548 10.4851 9.31657 10.4599 9.18648 10.4604C9.05638 10.4608 8.92765 10.4869 8.80764 10.5371C8.68762 10.5873 8.57867 10.6607 8.48701 10.753C8.39535 10.8453 8.32277 10.9548 8.27341 11.0752C8.22406 11.1956 8.19889 11.3245 8.19936 11.4546C8.19982 11.5847 8.2259 11.7134 8.27612 11.8334C8.32633 11.9534 8.39969 12.0624 8.49201 12.154C9.16001 12.816 9.92201 13.144 10.72 13.144C11.697 13.144 12.73 12.652 13.713 11.677L16.893 8.52403C17.2444 8.17637 17.5231 7.76237 17.7132 7.30609C17.9032 6.8498 18.0007 6.36031 18 5.86603C18.0009 5.37139 17.9033 4.88153 17.7129 4.42501C17.5225 3.96848 17.2431 3.55444 16.891 3.20703Z" fill="#16A75C"/>
</svg>
