<svg width="68" height="55" viewBox="0 0 68 55" fill="none" xmlns="http://www.w3.org/2000/svg">
<g clip-path="url(#clip0_876_78431)">
<path opacity="0.8" d="M67.6287 38.3343C67.5664 32.2585 62.6963 25.6192 56.7149 25.2399C56.6098 25.2333 56.5037 25.2275 56.3965 25.2227C47.823 24.8348 47.2815 35.8463 39.541 37.1177C31.8004 38.3891 25.8162 32.1436 16.5805 36.2688C8.28561 39.9738 6.23753 60.6214 30.7268 61.3551C50.3203 61.9421 67.8146 56.4618 67.6287 38.3343Z" fill="#EFEFEF"/>
<g clip-path="url(#clip1_876_78431)">
<path d="M42.1184 28.059H35.6752V55H42.1184V28.059Z" fill="#8E4F24"/>
<path d="M39.7032 33.5164H35.7459V55H39.7032V33.5164Z" fill="#B0632B"/>
<path d="M45.4688 47.3058V55H39.7988V52.8974C39.7988 51.4144 40.3962 49.9922 41.4595 48.9436C42.5229 47.895 43.965 47.3058 45.4688 47.3058Z" fill="#27AE69"/>
<path d="M36.0618 55H30.3918V49.4085C31.8956 49.4085 33.3378 49.9976 34.4011 51.0462C35.4644 52.0948 36.0618 53.517 36.0618 55Z" fill="#27AE69"/>
<path d="M11.9079 16.331H9.63467C9.52162 16.331 9.41321 16.2867 9.33327 16.2079C9.25333 16.129 9.20843 16.0221 9.20843 15.9106C9.20843 15.7992 9.25333 15.6922 9.33327 15.6134C9.41321 15.5346 9.52162 15.4903 9.63467 15.4903H11.9079C12.021 15.4903 12.1294 15.5346 12.2093 15.6134C12.2893 15.6922 12.3342 15.7992 12.3342 15.9106C12.3342 16.0221 12.2893 16.129 12.2093 16.2079C12.1294 16.2867 12.021 16.331 11.9079 16.331Z" fill="#FE4E4E"/>
<path d="M14.3233 13.739C14.2103 13.7389 14.1018 13.6947 14.0219 13.6158C13.942 13.537 13.8971 13.4301 13.8971 13.3186V11.0767C13.8971 10.9652 13.942 10.8583 14.0219 10.7795C14.1018 10.7007 14.2103 10.6564 14.3233 10.6564C14.4363 10.6564 14.5448 10.7007 14.6247 10.7795C14.7046 10.8583 14.7495 10.9652 14.7495 11.0767V13.3185C14.7495 13.3737 14.7385 13.4284 14.7171 13.4794C14.6957 13.5304 14.6643 13.5768 14.6247 13.6158C14.5851 13.6548 14.5381 13.6858 14.4864 13.7069C14.4347 13.7281 14.3793 13.7389 14.3233 13.739Z" fill="#FE4E4E"/>
<path d="M12.6169 14.4467C12.5276 14.4467 12.4405 14.419 12.3682 14.3674L10.1775 12.8118C10.0857 12.7467 10.024 12.6483 10.0058 12.5382C9.98767 12.4282 10.0146 12.3156 10.0806 12.2251C10.1467 12.1346 10.2465 12.0737 10.3581 12.0558C10.4696 12.0379 10.5839 12.0644 10.6756 12.1296L12.8663 13.6852C12.9395 13.7372 12.9941 13.8107 13.0222 13.8952C13.0503 13.9797 13.0506 14.0709 13.0228 14.1555C12.9951 14.2402 12.9409 14.314 12.8679 14.3663C12.795 14.4186 12.7071 14.4467 12.6169 14.4467H12.6169Z" fill="#FE4E4E"/>
<path d="M28.0092 4.16785H49.7843C52.2967 4.16785 54.7061 5.15207 56.4826 6.90399C58.2591 8.65591 59.2571 11.032 59.2571 13.5096V28.059H18.5364V13.5096C18.5364 11.032 19.5345 8.65591 21.311 6.90399C23.0875 5.15207 25.4969 4.16785 28.0092 4.16785Z" fill="#FDBE12"/>
<path d="M57.2205 7.72607H35.4175V12.1739H59.1592C58.9227 10.5484 58.2538 9.01375 57.2205 7.72607Z" fill="#F9AE16"/>
<path d="M28.0092 4.16785C30.5216 4.16785 32.931 5.15207 34.7075 6.90399C36.484 8.65591 37.482 11.032 37.482 13.5096V28.059H18.5364V13.5096C18.5364 11.032 19.5345 8.65591 21.311 6.90399C23.0875 5.15207 25.4969 4.16785 28.0092 4.16785Z" fill="#FAAF18"/>
<path d="M28.0079 5.18445C30.2123 5.18445 32.3264 6.04803 33.8851 7.5852C35.4438 9.12238 36.3195 11.2072 36.3195 13.3811V27.1694H19.6962V13.3811C19.6962 11.2072 20.5719 9.12238 22.1306 7.5852C23.6894 6.04803 25.8035 5.18445 28.0079 5.18445Z" fill="#535044"/>
<path d="M19.7204 12.7858C19.7061 12.9826 19.6962 13.1807 19.6962 13.3812V27.1694H36.3195V19.2159L19.7204 12.7858Z" fill="#766B60"/>
<path d="M41.1197 19.4175C42.1516 19.4175 42.9882 18.5925 42.9882 17.5748C42.9882 16.5572 42.1516 15.7322 41.1197 15.7322C40.0877 15.7322 39.2512 16.5572 39.2512 17.5748C39.2512 18.5925 40.0877 19.4175 41.1197 19.4175Z" fill="#535044"/>
<path d="M44.6956 0.482483H41.9895H40.4432V2.64285V18.4008H41.9895V2.64285H44.6956L43.9225 1.5478L44.6956 0.482483Z" fill="#535044"/>
<path d="M41.1197 18.5597C41.6712 18.5597 42.1184 18.1188 42.1184 17.5748C42.1184 17.0309 41.6712 16.59 41.1197 16.59C40.5681 16.59 40.121 17.0309 40.121 17.5748C40.121 18.1188 40.5681 18.5597 41.1197 18.5597Z" fill="white"/>
<path d="M11.6423 28.059H37.4793V28.9485H11.6423C11.5227 28.9485 11.4079 28.9017 11.3234 28.8182C11.2388 28.7348 11.1913 28.6217 11.1913 28.5037C11.1913 28.3858 11.2388 28.2726 11.3234 28.1892C11.4079 28.1058 11.5227 28.059 11.6423 28.059Z" fill="#FDBE12"/>
<path d="M36.9639 29.5839C37.8179 29.5839 38.5102 28.9012 38.5102 28.059C38.5102 27.2167 37.8179 26.534 36.9639 26.534C36.1098 26.534 35.4175 27.2167 35.4175 28.059C35.4175 28.9012 36.1098 29.5839 36.9639 29.5839Z" fill="#535044"/>
<path d="M36.9638 28.8977C37.4336 28.8977 37.8143 28.5222 37.8143 28.0589C37.8143 27.5957 37.4336 27.2202 36.9638 27.2202C36.4941 27.2202 36.1133 27.5957 36.1133 28.0589C36.1133 28.5222 36.4941 28.8977 36.9638 28.8977Z" fill="#766B60"/>
<path d="M30.5487 15.3962H15.9104C14.7573 15.3962 13.8225 16.318 13.8225 17.4552V26.0437C13.8225 27.1809 14.7573 28.1027 15.9104 28.1027H30.5487C31.7018 28.1027 32.6365 27.1809 32.6365 26.0437V17.4552C32.6365 16.318 31.7018 15.3962 30.5487 15.3962Z" fill="#DA3845"/>
<path d="M23.2295 24.8813L32.6365 18.8092V17.3759C32.6365 17.2784 32.6171 17.1818 32.5792 17.0917C32.5413 17.0015 32.4859 16.9197 32.4159 16.8507C32.346 16.7817 32.2629 16.727 32.1715 16.6897C32.0802 16.6523 31.9822 16.6331 31.8833 16.6331H14.5758C14.4769 16.6331 14.3789 16.6523 14.2875 16.6897C14.1962 16.727 14.1131 16.7817 14.0432 16.8507C13.9732 16.9197 13.9177 17.0015 13.8799 17.0917C13.842 17.1818 13.8225 17.2784 13.8225 17.3759V18.8092L23.2295 24.8813Z" fill="#BB2E3F"/>
<path d="M23.2295 23.6443L32.6365 17.5722V17.2181C32.6365 16.7349 32.4419 16.2715 32.0954 15.9298C31.749 15.5881 31.2791 15.3962 30.7891 15.3962H15.67C15.18 15.3962 14.7101 15.5881 14.3636 15.9298C14.0172 16.2715 13.8225 16.7349 13.8225 17.2181V17.5722L23.2295 23.6443Z" fill="#FE4E4E"/>
</g>
<path d="M14.28 47.9561C14.28 49.0752 13.3667 49.9824 12.24 49.9824C11.1133 49.9824 10.2 49.0752 10.2 47.9561C10.2 46.837 11.1133 45.9298 12.24 45.9298C13.3667 45.9298 14.28 46.837 14.28 47.9561Z" fill="#FAAF18"/>
<path d="M68 14.1842C68 15.3033 67.0867 16.2105 65.96 16.2105C64.8333 16.2105 63.92 15.3033 63.92 14.1842C63.92 13.0651 64.8333 12.1579 65.96 12.1579C67.0867 12.1579 68 13.0651 68 14.1842Z" fill="#27AE69"/>
<path d="M4.76 26.0044C4.76 27.31 3.69444 28.3685 2.38 28.3685C1.06556 28.3685 0 27.31 0 26.0044C0 24.6988 1.06556 23.6404 2.38 23.6404C3.69444 23.6404 4.76 24.6988 4.76 26.0044Z" fill="#00A2DE"/>
</g>
<defs>
<clipPath id="clip0_876_78431">
<rect width="68" height="55" fill="white"/>
</clipPath>
<clipPath id="clip1_876_78431">
<rect width="50.5143" height="54.5175" fill="white" transform="translate(8.74286 0.482483)"/>
</clipPath>
</defs>
</svg>
