<svg width="16" height="16" viewBox="0 0 16 16" fill="none" xmlns="http://www.w3.org/2000/svg">
<g clip-path="url(#clip0_758_9317)">
<path d="M3.13999 2.24001H12.86C13.4577 2.23997 14.0328 2.46864 14.4672 2.87913C14.9017 3.28961 15.1626 3.85079 15.1964 4.44753L15.2 4.58001V11.42C15.2 12.0177 14.9714 12.5928 14.5609 13.0272C14.1504 13.4617 13.5892 13.7226 12.9925 13.7564L12.86 13.76H3.13999C2.54229 13.7601 1.96723 13.5314 1.53278 13.1209C1.09833 12.7104 0.837427 12.1492 0.803588 11.5525L0.799988 11.42V4.58001C0.799949 3.98231 1.02863 3.40725 1.43911 2.9728C1.8496 2.53835 2.41077 2.27744 3.00751 2.24361L3.13999 2.24001ZM14.12 6.10857L8.25199 9.19737C8.18574 9.23237 8.11292 9.2532 8.03817 9.25853C7.96343 9.26386 7.88839 9.25358 7.81783 9.22833L7.74871 9.19809L1.87999 6.10929V11.42C1.88 11.7362 1.99891 12.0409 2.21312 12.2735C2.42733 12.5061 2.72117 12.6497 3.03631 12.6757L3.13999 12.68H12.86C13.1763 12.68 13.4811 12.561 13.7137 12.3466C13.9463 12.1323 14.0898 11.8382 14.1157 11.523L14.12 11.42V6.10857ZM12.86 3.32001H3.13999C2.82377 3.32002 2.51912 3.43893 2.28651 3.65314C2.05389 3.86734 1.91033 4.16118 1.88431 4.47633L1.87999 4.58001V4.88889L7.99999 8.10945L14.12 4.88817V4.58001C14.12 4.26368 14.001 3.95893 13.7866 3.7263C13.5722 3.49367 13.2782 3.35018 12.963 3.32433L12.86 3.32001Z"/>
</g>
<defs>
<clipPath id="clip0_758_9317">
<rect width="14.4" height="14.4" fill="white" transform="translate(0.799988 0.800003)"/>
</clipPath>
</defs>
</svg>
