<svg width="20" height="20" viewBox="0 0 20 20" fill="none" xmlns="http://www.w3.org/2000/svg">
<path d="M15.6304 4.35324C14.7925 3.5077 13.7753 2.8612 12.6539 2.46148C11.5326 2.06175 10.3358 1.919 9.15197 2.04379C5.48284 2.4137 2.46355 5.39299 2.05365 9.06212C1.50378 13.911 5.25289 18 9.98177 18C11.4915 18 12.9703 17.5716 14.2463 16.7646C15.5222 15.9576 16.543 14.8052 17.1901 13.4411C17.51 12.7712 17.0301 12.0014 16.2903 12.0014C15.9204 12.0014 15.5704 12.2014 15.4105 12.5313C14.83 13.78 13.8372 14.7907 12.5991 15.3934C11.3609 15.9961 9.95298 16.154 8.61209 15.8405C6.39262 15.3506 4.60305 13.5411 4.13316 11.3216C3.93564 10.4441 3.93792 9.53334 4.13985 8.65682C4.34178 7.78029 4.73818 6.96037 5.29973 6.25771C5.86128 5.55505 6.57362 4.98762 7.38406 4.5974C8.19449 4.20718 9.08228 4.00415 9.98177 4.00332C11.6414 4.00332 13.121 4.69316 14.2008 5.7829L12.6911 7.29254C12.0613 7.92239 12.5012 9.00213 13.391 9.00213H16.9801C17.53 9.00213 17.9799 8.55224 17.9799 8.00237V4.41322C17.9799 3.52343 16.9001 3.07354 16.2703 3.70339L15.6304 4.35324Z" fill="white"/>
</svg>
