<svg width="20" height="20" viewBox="0 0 20 20" xmlns="http://www.w3.org/2000/svg">
<path d="M10 6.5C9.66879 6.50518 9.34003 6.5578 9.02375 6.65625C9.17005 6.91354 9.24794 7.20403 9.25 7.5C9.25 7.72981 9.20473 7.95738 9.11679 8.1697C9.02884 8.38202 8.89994 8.57493 8.73743 8.73744C8.57493 8.89994 8.38201 9.02884 8.16969 9.11679C7.95737 9.20474 7.72981 9.25 7.5 9.25C7.20403 9.24795 6.91353 9.17005 6.65624 9.02375C6.45325 9.72775 6.47691 10.4778 6.72387 11.1676C6.97083 11.8574 7.42856 12.452 8.03224 12.8672C8.63591 13.2824 9.35493 13.4972 10.0874 13.481C10.8199 13.4649 11.5288 13.2187 12.1136 12.7773C12.6984 12.3359 13.1295 11.7217 13.3458 11.0217C13.5622 10.3217 13.5528 9.57133 13.319 8.87696C13.0852 8.18258 12.6388 7.57937 12.0432 7.15277C11.4475 6.72616 10.7327 6.49779 10 6.5ZM18.8913 9.54375C17.1966 6.23719 13.8416 4 10 4C6.15843 4 2.80249 6.23875 1.10873 9.54406C1.03725 9.68547 1 9.8417 1 10.0002C1 10.1586 1.03725 10.3148 1.10873 10.4563C2.80342 13.7628 6.15843 16 10 16C13.8416 16 17.1975 13.7612 18.8913 10.4559C18.9628 10.3145 19 10.1583 19 9.99984C19 9.84139 18.9628 9.68516 18.8913 9.54375ZM10 14.5C6.91718 14.5 4.09093 12.7812 2.56467 10C4.09093 7.21875 6.91687 5.5 10 5.5C13.0831 5.5 15.9091 7.21875 17.4353 10C15.9094 12.7812 13.0831 14.5 10 14.5Z" fill="black"/>
</svg>
