<svg viewBox="0 0 20 20" fill="none" xmlns="http://www.w3.org/2000/svg">
<path fill-rule="evenodd" clip-rule="evenodd" d="M5.4667 9.02385C5.35963 9.13543 5.22029 9.21854 5.05866 9.25698C3.59102 9.60597 2.50004 10.9268 2.50004 12.5C2.50004 14.341 3.99236 15.8333 5.83337 15.8333C6.15021 15.8333 6.45594 15.7892 6.74514 15.7073C7.18798 15.582 7.64859 15.8393 7.77395 16.2822C7.89931 16.725 7.64194 17.1856 7.19911 17.311C6.76414 17.4341 6.30571 17.5 5.83337 17.5C3.07189 17.5 0.833374 15.2615 0.833374 12.5C0.833374 10.3126 2.2376 8.45457 4.19303 7.77556C4.47385 4.81569 6.96669 2.5 10 2.5C13.0476 2.5 15.5495 4.83739 15.8108 7.81711C17.7061 8.52802 19.055 10.3558 19.055 12.5C19.055 15.2615 16.8165 17.5 14.055 17.5C13.5827 17.5 13.1242 17.4341 12.6895 17.3109C12.2467 17.1854 11.9895 16.7247 12.115 16.2819C12.2404 15.8391 12.7011 15.5819 13.1439 15.7074C13.4325 15.7892 13.7382 15.8333 14.055 15.8333C15.8961 15.8333 17.3884 14.341 17.3884 12.5C17.3884 10.9267 16.2977 9.60594 14.8302 9.25698C14.4842 9.17471 14.2404 8.88781 14.1965 8.55508C14.1771 8.48448 14.1667 8.41012 14.1667 8.33333C14.1667 6.03232 12.3011 4.16667 10 4.16667C7.69903 4.16667 5.83337 6.03232 5.83337 8.33333C5.83337 8.62066 5.68796 8.87403 5.4667 9.02385ZM9.40985 8.13001C9.73423 7.8046 10.2608 7.80315 10.587 8.12676L13.5586 11.0751C13.8854 11.3992 13.8874 11.9269 13.5633 12.2536C13.2391 12.5803 12.7115 12.5824 12.3848 12.2582L10.8334 10.719V15.8333C10.8334 16.2936 10.4603 16.6667 10 16.6667C9.5398 16.6667 9.16671 16.2936 9.16671 15.8333V10.7347L7.70065 12.2054C7.37572 12.5314 6.84809 12.5322 6.52214 12.2073C6.19618 11.8823 6.19535 11.3547 6.52027 11.0288L9.40985 8.13001Z"/>
</svg>
