<svg width="20" height="20" viewBox="0 0 20 20" fill="none" xmlns="http://www.w3.org/2000/svg">
<path d="M10 7.5C9.33696 7.5 8.70107 7.76339 8.23223 8.23223C7.76339 8.70107 7.5 9.33696 7.5 10C7.5 10.663 7.76339 11.2989 8.23223 11.7678C8.70107 12.2366 9.33696 12.5 10 12.5C10.663 12.5 11.2989 12.2366 11.7678 11.7678C12.2366 11.2989 12.5 10.663 12.5 10C12.5 9.33696 12.2366 8.70107 11.7678 8.23223C11.2989 7.76339 10.663 7.5 10 7.5ZM8.75 10C8.75 9.66848 8.8817 9.35054 9.11612 9.11612C9.35054 8.8817 9.66848 8.75 10 8.75C10.3315 8.75 10.6495 8.8817 10.8839 9.11612C11.1183 9.35054 11.25 9.66848 11.25 10C11.25 10.3315 11.1183 10.6495 10.8839 10.8839C10.6495 11.1183 10.3315 11.25 10 11.25C9.66848 11.25 9.35054 11.1183 9.11612 10.8839C8.8817 10.6495 8.75 10.3315 8.75 10Z" fill="black"/>
<path d="M13.2725 5.4975C13.042 5.53985 12.804 5.48901 12.6109 5.35613C12.4178 5.22326 12.2853 5.0192 12.2425 4.78875L11.9175 3.01875C11.9016 2.93255 11.8604 2.85303 11.7992 2.79027C11.738 2.72751 11.6595 2.68435 11.5737 2.66625C10.5357 2.44614 9.46304 2.44614 8.425 2.66625C8.33923 2.68435 8.26077 2.72751 8.19957 2.79027C8.13837 2.85303 8.09719 2.93255 8.08125 3.01875L7.7575 4.78875C7.73386 4.91481 7.68317 5.03425 7.60894 5.13885C7.5347 5.24344 7.43867 5.3307 7.32747 5.39462C7.21627 5.45854 7.09254 5.49759 6.96479 5.50909C6.83705 5.52059 6.70833 5.50427 6.5875 5.46125L4.88875 4.85625C4.80632 4.82673 4.717 4.82225 4.63203 4.84338C4.54706 4.86451 4.47025 4.9103 4.41125 4.975C3.7 5.75875 3.16125 6.68375 2.83375 7.69125C2.8067 7.7745 2.80509 7.86393 2.82914 7.9481C2.85319 8.03227 2.9018 8.10735 2.96875 8.16375L4.34625 9.3275C4.44412 9.4101 4.52279 9.51308 4.57675 9.62923C4.63071 9.74539 4.65867 9.87192 4.65867 10C4.65867 10.1281 4.63071 10.2546 4.57675 10.3708C4.52279 10.4869 4.44412 10.5899 4.34625 10.6725L2.96875 11.8362C2.9018 11.8926 2.85319 11.9677 2.82914 12.0519C2.80509 12.1361 2.8067 12.2255 2.83375 12.3087C3.16184 13.3157 3.69995 14.2415 4.4125 15.025C4.4715 15.0897 4.54831 15.1355 4.63328 15.1566C4.71825 15.1777 4.80757 15.1733 4.89 15.1437L6.59 14.5387C6.71081 14.4953 6.83963 14.4786 6.96753 14.4899C7.09543 14.5012 7.21933 14.5402 7.33065 14.6042C7.44196 14.6682 7.53803 14.7556 7.61217 14.8604C7.68631 14.9653 7.73675 15.085 7.76 15.2112L8.0825 16.9812C8.115 17.1562 8.25125 17.2962 8.42625 17.3325C9.46471 17.5527 10.5378 17.5527 11.5762 17.3325C11.6617 17.3144 11.7398 17.2714 11.8008 17.2089C11.8618 17.1463 11.9028 17.0671 11.9187 16.9812L12.2437 15.2112C12.2674 15.0852 12.3181 14.9657 12.3923 14.8611C12.4665 14.7566 12.5626 14.6693 12.6738 14.6054C12.785 14.5415 12.9087 14.5024 13.0365 14.4909C13.1642 14.4794 13.2929 14.4957 13.4137 14.5387L15.1125 15.1437C15.2812 15.2037 15.47 15.1562 15.59 15.025C16.3012 14.2412 16.84 13.3162 17.1675 12.3087C17.1945 12.2255 17.1962 12.1361 17.1721 12.0519C17.1481 11.9677 17.0994 11.8926 17.0325 11.8362L15.655 10.6725C15.5569 10.59 15.4781 10.4871 15.424 10.3709C15.3699 10.2547 15.3419 10.1281 15.3419 10C15.3419 9.87185 15.3699 9.74526 15.424 9.62909C15.4781 9.51292 15.5569 9.40998 15.655 9.3275L17.0325 8.16375C17.0994 8.10735 17.1481 8.03227 17.1721 7.9481C17.1962 7.86393 17.1945 7.7745 17.1675 7.69125C16.8391 6.68419 16.3005 5.75835 15.5875 4.975C15.5285 4.9103 15.4517 4.86451 15.3667 4.84338C15.2817 4.82225 15.1924 4.82673 15.11 4.85625L13.41 5.46125C13.3648 5.47748 13.3184 5.49002 13.2712 5.49875L13.2725 5.4975ZM4.9975 6.2225L6.16875 6.63875C6.46018 6.7425 6.77067 6.78176 7.07876 6.75381C7.38684 6.72586 7.68519 6.63137 7.9532 6.47686C8.22121 6.32236 8.45248 6.11152 8.63106 5.85891C8.80963 5.6063 8.93124 5.31794 8.9875 5.01375L9.20875 3.80125C9.73379 3.73569 10.265 3.73569 10.79 3.80125L11.0125 5.01375C11.0684 5.31815 11.1897 5.60677 11.3682 5.85961C11.5467 6.11245 11.778 6.32347 12.0461 6.47804C12.3142 6.63261 12.6128 6.72704 12.921 6.75479C13.2292 6.78254 13.5398 6.74295 13.8312 6.63875L15 6.22125C15.3187 6.63875 15.5837 7.09375 15.7875 7.57625L14.845 8.3725C14.6082 8.57244 14.4178 8.82166 14.2873 9.10276C14.1567 9.38386 14.0891 9.69006 14.0891 10C14.0891 10.3099 14.1567 10.6161 14.2873 10.8972C14.4178 11.1783 14.6082 11.4276 14.845 11.6275L15.7887 12.4237C15.5843 12.9067 15.3197 13.362 15.0012 13.7787L13.83 13.3612C13.5386 13.2575 13.2281 13.2182 12.92 13.2462C12.6119 13.2741 12.3136 13.3686 12.0455 13.5231C11.7775 13.6776 11.5463 13.8885 11.3677 14.1411C11.1891 14.3937 11.0675 14.6821 11.0112 14.9862L10.7887 16.1987C10.2637 16.2644 9.73254 16.2644 9.2075 16.1987L8.98625 14.9862C8.93039 14.6818 8.80901 14.3932 8.63054 14.1404C8.45206 13.8875 8.22075 13.6765 7.95263 13.522C7.68451 13.3674 7.38598 13.273 7.07774 13.2452C6.7695 13.2175 6.45892 13.257 6.1675 13.3612L5 13.7787C4.68154 13.362 4.41695 12.9067 4.2125 12.4237L5.155 11.6262C5.3916 11.4263 5.58174 11.1772 5.71217 10.8962C5.84259 10.6152 5.91016 10.3091 5.91016 9.99937C5.91016 9.6896 5.84259 9.38355 5.71217 9.10257C5.58174 8.8216 5.3916 8.57245 5.155 8.3725L4.21125 7.57625C4.41625 7.09375 4.68125 6.63875 4.99875 6.22125L4.9975 6.2225Z" fill="black"/>
</svg>
