<svg width="20" height="20" viewBox="0 0 20 20" fill="none" xmlns="http://www.w3.org/2000/svg">
<path d="M2.83376 7.69131C3.16186 6.68437 3.69997 5.75855 4.41251 4.97506C4.47151 4.91037 4.54833 4.86457 4.6333 4.84344C4.71827 4.82231 4.80759 4.82679 4.89001 4.85631L6.59001 5.46131C6.71077 5.50412 6.83937 5.52027 6.96696 5.50867C7.09455 5.49706 7.21812 5.45796 7.32917 5.39406C7.44022 5.33016 7.53612 5.24298 7.61028 5.1385C7.68443 5.03402 7.73509 4.91473 7.75876 4.78881L8.08376 3.01881C8.09962 2.93278 8.14061 2.85338 8.20157 2.79064C8.26254 2.7279 8.34073 2.68463 8.42626 2.66631C9.46471 2.44603 10.5378 2.44603 11.5763 2.66631C11.7513 2.70381 11.8863 2.84256 11.9188 3.01881L12.2438 4.78881C12.267 4.91493 12.3175 5.03449 12.3915 5.1392C12.4656 5.24391 12.5615 5.33127 12.6727 5.39523C12.7838 5.4592 12.9076 5.49824 13.0353 5.50965C13.1631 5.52106 13.2918 5.50456 13.4125 5.46131L15.1125 4.85631C15.1949 4.82679 15.2843 4.82231 15.3692 4.84344C15.4542 4.86457 15.531 4.91037 15.59 4.97506C16.3013 5.75881 16.84 6.68381 17.1675 7.69131C17.1946 7.77456 17.1962 7.86399 17.1721 7.94816C17.1481 8.03233 17.0995 8.10742 17.0325 8.16381L15.655 9.32756C15.5569 9.41005 15.4781 9.51298 15.424 9.62915C15.3699 9.74532 15.3419 9.87192 15.3419 10.0001C15.3419 10.1282 15.3699 10.2548 15.424 10.371C15.4781 10.4871 15.5569 10.5901 15.655 10.6726L17.0325 11.8363C17.17 11.9526 17.2225 12.1388 17.1675 12.3088C16.8398 13.3157 16.3021 14.2415 15.59 15.0251C15.531 15.0898 15.4542 15.1355 15.3692 15.1567C15.2843 15.1778 15.1949 15.1733 15.1125 15.1438L13.4125 14.5388C13.2918 14.496 13.1632 14.4798 13.0356 14.4915C12.908 14.5031 12.7844 14.5422 12.6734 14.6061C12.5623 14.67 12.4664 14.7571 12.3923 14.8616C12.3181 14.9661 12.2674 15.0854 12.2438 15.2113L11.9188 16.9813C11.903 17.0676 11.8619 17.1472 11.8006 17.21C11.7394 17.2727 11.6609 17.3159 11.575 17.3338C10.537 17.5541 9.46429 17.5541 8.42626 17.3338C8.3405 17.3157 8.26203 17.2725 8.20084 17.2098C8.13964 17.147 8.09845 17.0675 8.08251 16.9813L7.75876 15.2113C7.73548 15.0852 7.68507 14.9656 7.61101 14.8609C7.53695 14.7562 7.44101 14.6689 7.32985 14.6049C7.21868 14.5409 7.09494 14.5019 6.9672 14.4905C6.83945 14.4791 6.71075 14.4956 6.59001 14.5388L4.89001 15.1438C4.80759 15.1733 4.71827 15.1778 4.6333 15.1567C4.54833 15.1355 4.47151 15.0898 4.41251 15.0251C3.70042 14.2415 3.16274 13.3156 2.83501 12.3088C2.80796 12.2256 2.80636 12.1361 2.83041 12.052C2.85445 11.9678 2.90306 11.8927 2.97001 11.8363L4.34751 10.6726C4.44539 10.59 4.52406 10.487 4.57802 10.3708C4.63198 10.2547 4.65994 10.1281 4.65994 10.0001C4.65994 9.87198 4.63198 9.74545 4.57802 9.6293C4.52406 9.51314 4.44539 9.41017 4.34751 9.32756L2.97001 8.16381C2.90306 8.10742 2.85445 8.03233 2.83041 7.94816C2.80636 7.86399 2.80796 7.77456 2.83501 7.69131H2.83376ZM7.81251 10.0001C7.81251 10.5802 8.04298 11.1366 8.45322 11.5469C8.86345 11.9571 9.41985 12.1876 10 12.1876C10.5802 12.1876 11.1366 11.9571 11.5468 11.5469C11.957 11.1366 12.1875 10.5802 12.1875 10.0001C12.1875 9.4199 11.957 8.8635 11.5468 8.45327C11.1366 8.04303 10.5802 7.81256 10 7.81256C9.41985 7.81256 8.86345 8.04303 8.45322 8.45327C8.04298 8.8635 7.81251 9.4199 7.81251 10.0001Z" fill="white"/>
</svg>
