<svg width="20" height="20" viewBox="0 0 20 20" fill="none" xmlns="http://www.w3.org/2000/svg">
<path d="M3.33329 4.16675C3.33329 3.94573 3.42109 3.73377 3.57737 3.57749C3.73365 3.42121 3.94561 3.33341 4.16663 3.33341H9.30996C9.53095 3.33346 9.74288 3.42129 9.89913 3.57758L16.5658 10.2442C16.722 10.4005 16.8098 10.6124 16.8098 10.8334C16.8098 11.0544 16.722 11.2663 16.5658 11.4226L11.4225 16.5659C11.2662 16.7221 11.0543 16.8099 10.8333 16.8099C10.6123 16.8099 10.4004 16.7221 10.2441 16.5659L3.57746 9.89925C3.42117 9.743 3.33334 9.53108 3.33329 9.31008V4.16675ZM4.16663 1.66675C3.50358 1.66675 2.8677 1.93014 2.39886 2.39898C1.93002 2.86782 1.66663 3.50371 1.66663 4.16675V9.31008C1.66699 9.97278 1.93046 10.6082 2.39913 11.0767L9.06579 17.7434C9.53461 18.2121 10.1704 18.4754 10.8333 18.4754C11.4962 18.4754 12.132 18.2121 12.6008 17.7434L17.7441 12.6017C17.9763 12.3696 18.1605 12.094 18.2862 11.7906C18.4118 11.4873 18.4765 11.1622 18.4765 10.8338C18.4765 10.5055 18.4118 10.1804 18.2862 9.87703C18.1605 9.57368 17.9763 9.29807 17.7441 9.06592L11.0775 2.39925C10.6087 1.93037 9.97295 1.66689 9.30996 1.66675H4.16663ZM5.83329 5.00008C5.61228 5.00008 5.40032 5.08788 5.24404 5.24416C5.08776 5.40044 4.99996 5.6124 4.99996 5.83342C4.99996 6.05443 5.08776 6.26639 5.24404 6.42267C5.40032 6.57895 5.61228 6.66675 5.83329 6.66675H5.84163C6.06264 6.66675 6.2746 6.57895 6.43088 6.42267C6.58716 6.26639 6.67496 6.05443 6.67496 5.83342C6.67496 5.6124 6.58716 5.40044 6.43088 5.24416C6.2746 5.08788 6.06264 5.00008 5.84163 5.00008H5.83329Z" fill="#16A75C"/>
</svg>
