<svg viewBox="0 0 20 20" fill="none" xmlns="http://www.w3.org/2000/svg">
<path d="M14.8243 6.54297C14.8243 3.86719 12.6563 1.69922 9.98051 1.69922C7.30473 1.69922 5.13676 3.86719 5.13676 6.54297C5.13676 8.16016 5.92973 9.59375 7.14848 10.4727C7.14066 10.4766 7.13481 10.4785 7.1309 10.4805C6.25785 10.8496 5.47465 11.3789 4.80082 12.0547C4.12699 12.7285 3.59965 13.5137 3.23051 14.3887C2.86918 15.2441 2.67582 16.1523 2.65629 17.0859C2.65434 17.1738 2.72465 17.2461 2.81254 17.2461H3.98246C4.06645 17.2461 4.13676 17.1777 4.13871 17.0938C4.17777 15.5859 4.78129 14.1738 5.84965 13.1035C6.95316 11.9961 8.41801 11.3867 9.98051 11.3867C12.6563 11.3867 14.8243 9.21875 14.8243 6.54297ZM9.98051 9.90234C8.12504 9.90234 6.62113 8.39844 6.62113 6.54297C6.62113 4.6875 8.12504 3.18359 9.98051 3.18359C11.836 3.18359 13.3399 4.6875 13.3399 6.54297C13.3399 8.39844 11.836 9.90234 9.98051 9.90234ZM12.0313 14.2188H17.1875C17.2735 14.2188 17.3438 14.1484 17.3438 14.0625V12.9688C17.3438 12.8828 17.2735 12.8125 17.1875 12.8125H13.7403L14.6621 11.6387C14.6836 11.6113 14.6954 11.5762 14.6954 11.543C14.6954 11.457 14.625 11.3867 14.5391 11.3867H13.1211C13.0254 11.3867 12.9356 11.4316 12.875 11.5059L11.5371 13.207C11.4512 13.3164 11.4043 13.4531 11.4043 13.5938C11.4063 13.9395 11.6856 14.2188 12.0313 14.2188ZM16.7188 15.4688H11.5625C11.4766 15.4688 11.4063 15.5391 11.4063 15.625V16.7188C11.4063 16.8047 11.4766 16.875 11.5625 16.875H15.0098L14.0879 18.0488C14.0664 18.0762 14.0547 18.1113 14.0547 18.1445C14.0547 18.2305 14.125 18.3008 14.211 18.3008H15.6289C15.7246 18.3008 15.8145 18.2559 15.875 18.1816L17.2129 16.4805C17.2989 16.3711 17.3457 16.2344 17.3457 16.0938C17.3438 15.748 17.0645 15.4688 16.7188 15.4688Z"/>
</svg>
