<svg width="36" height="36" viewBox="0 0 36 36" fill="none" xmlns="http://www.w3.org/2000/svg">
<rect width="36" height="36" rx="18" fill="#F5F5F5"/>
<g clip-path="url(#clip0_2648_81326)">
<path d="M17.875 18C20.3605 18 22.375 15.9855 22.375 13.5C22.375 11.0145 20.3605 9 17.875 9C15.3895 9 13.375 11.0145 13.375 13.5C13.375 15.9855 15.3895 18 17.875 18ZM21.025 19.125H20.4379C19.6574 19.4836 18.7891 19.6875 17.875 19.6875C16.9609 19.6875 16.0961 19.4836 15.3121 19.125H14.725C12.1164 19.125 10 21.2414 10 23.85V25.3125C10 26.2441 10.7559 27 11.6875 27H24.0625C24.9941 27 25.75 26.2441 25.75 25.3125V23.85C25.75 21.2414 23.6336 19.125 21.025 19.125Z" fill="#BDBDBD"/>
</g>
<defs>
<clipPath id="clip0_2648_81326">
<rect width="15.75" height="18" fill="white" transform="translate(10 9)"/>
</clipPath>
</defs>
</svg>
